<?xml version="1.0" standalone="no"?>
<!DOCTYPE svg PUBLIC "-//W3C//DTD SVG 20010904//EN"
 "http://www.w3.org/TR/2001/REC-SVG-20010904/DTD/svg10.dtd">
<svg version="1.0" xmlns="http://www.w3.org/2000/svg"
 width="256.000000pt" height="256.000000pt" viewBox="0 0 256.000000 256.000000"
 preserveAspectRatio="xMidYMid meet">
<metadata>
Created by potrace 1.14, written by Peter Selinger 2001-2017
</metadata>
<g transform="translate(0.000000,256.000000) scale(0.100000,-0.100000)"
fill="#000000" stroke="none">
<path d="M846 2546 c-50 -19 -104 -63 -138 -112 -14 -21 -25 -40 -23 -42 1 -2
-3 -21 -9 -44 -8 -27 -10 -58 -4 -92 4 -28 5 -60 1 -71 -19 -64 -159 -217
-256 -279 -52 -34 -65 -38 -135 -40 -89 -4 -134 -20 -189 -69 -113 -102 -117
-275 -10 -390 94 -100 268 -110 384 -21 51 38 86 107 89 173 2 31 4 58 5 61 1
3 0 10 -1 15 -5 22 -1 68 7 74 4 3 17 22 27 41 50 91 144 184 236 234 40 22
65 27 132 30 76 3 87 0 136 -26 28 -16 52 -34 52 -39 0 -5 6 -9 14 -9 20 0
142 -125 184 -189 31 -47 37 -64 38 -118 3 -82 17 -123 64 -182 53 -67 131
-104 221 -104 213 1 335 209 234 403 -35 67 -102 117 -185 137 -24 5 -121 5
-127 -1 -7 -7 -96 38 -148 75 -73 51 -185 171 -185 198 0 6 -4 11 -9 11 -13 0
-23 48 -23 114 0 103 -56 195 -150 242 -62 31 -175 41 -232 20z"/>
<path d="M1475 2540 c-76 -30 -147 -103 -160 -166 -22 -99 -3 -190 53 -261 56
-69 122 -96 242 -98 57 -1 73 -6 129 -40 102 -61 232 -202 257 -277 4 -12 8
-59 9 -103 2 -77 1 -82 -36 -136 -48 -71 -128 -151 -199 -198 -74 -50 -83 -53
-170 -56 -51 -2 -90 -9 -122 -24 -112 -51 -178 -178 -153 -295 26 -125 131
-215 256 -222 57 -2 150 18 177 40 65 52 98 95 106 136 2 14 5 25 6 25 2 0 4
37 5 81 2 74 6 86 39 139 47 72 147 170 219 214 52 31 63 33 149 35 68 1 102
6 126 19 45 24 112 86 112 103 0 8 4 14 9 14 13 0 31 82 31 144 0 127 -105
248 -228 260 -20 3 -39 5 -42 6 -3 1 -9 1 -15 0 -62 -13 -83 -9 -141 28 -111
73 -252 228 -268 296 -4 16 -9 59 -10 95 -5 105 -69 196 -166 237 -59 26 -157
27 -215 4z"/>
<path d="M883 1887 c-24 -6 -43 -14 -43 -18 0 -5 -6 -9 -13 -9 -45 0 -128
-116 -132 -186 -2 -17 -5 -37 -9 -42 -3 -6 -3 -13 2 -16 16 -10 2 -78 -27
-129 -26 -46 -151 -187 -165 -187 -3 0 -28 -16 -56 -36 -27 -19 -52 -35 -55
-35 -3 1 -8 0 -12 0 -5 -1 -42 -2 -83 -4 -104 -2 -144 -16 -200 -67 -78 -71
-107 -211 -65 -311 20 -48 79 -112 122 -133 52 -25 61 -27 116 -28 26 -1 47
-5 47 -9 0 -4 8 -4 18 1 30 16 58 7 123 -40 89 -63 175 -152 220 -225 34 -55
38 -68 37 -125 -1 -49 5 -78 24 -120 48 -104 128 -158 244 -166 62 -4 80 -1
128 21 55 26 106 67 106 87 0 5 4 10 8 10 28 0 53 121 40 192 -16 89 -68 162
-141 199 -52 27 -69 31 -152 32 -63 2 -79 6 -138 41 -82 48 -217 182 -217 215
0 6 -4 11 -8 11 -18 0 -40 76 -38 130 1 30 -1 62 -6 71 -8 17 29 83 76 136 13
15 35 40 48 54 36 41 137 119 153 119 8 0 15 4 15 9 0 15 38 24 115 26 77 3
84 4 135 27 86 39 145 133 144 233 -2 95 -21 143 -81 202 -70 68 -173 93 -280
70z"/>
<path d="M2215 1228 c-116 -36 -182 -103 -201 -203 -10 -54 -11 -76 -3 -110 9
-43 -34 -123 -117 -217 -38 -43 -118 -108 -133 -108 -6 0 -11 -4 -11 -9 0 -19
-68 -34 -156 -34 l-90 -1 -68 48 c-146 104 -258 245 -254 320 6 131 -71 245
-194 285 -30 10 -112 17 -128 11 -3 -1 -16 -3 -29 -6 -83 -15 -170 -95 -192
-178 -37 -137 26 -277 151 -333 43 -20 71 -25 135 -25 73 0 86 -3 144 -35 74
-41 206 -167 244 -233 21 -36 26 -60 28 -120 4 -162 108 -267 273 -278 95 -6
158 20 220 90 54 61 70 118 62 213 -5 60 -3 69 22 108 62 95 156 190 239 241
53 33 70 38 130 40 81 3 104 8 146 36 91 58 119 107 125 214 4 69 1 89 -18
129 -27 57 -80 110 -137 137 -48 23 -143 31 -188 18z"/>
</g>
</svg>
